<svg width="8" height="8" viewBox="0 0 8 8" fill="none" xmlns="http://www.w3.org/2000/svg">
<path d="M7.72704 1.24523C7.99552 0.976745 7.99552 0.541444 7.72704 0.272958C7.45855 0.00447286 7.02325 0.00447286 6.75476 0.272958L4 3.02772L1.24523 0.272959C0.976746 0.00447347 0.541445 0.00447317 0.272959 0.272959C0.00447378 0.541444 0.00447397 0.976745 0.272959 1.24523L3.02772 4L0.272951 6.75477C0.0044654 7.02326 0.00446513 7.45856 0.272951 7.72704C0.541436 7.99553 0.976737 7.99553 1.24522 7.72704L4 4.97227L6.75477 7.72704C7.02326 7.99553 7.45856 7.99553 7.72704 7.72704C7.99553 7.45856 7.99553 7.02326 7.72704 6.75477L4.97227 4L7.72704 1.24523Z" fill="black"/>
</svg>
